{
  "accessors": [
    {
      "bufferView": 2,
      "componentType": 5126,
      "count": 43973,
      "max": [
        24.992084503173828,
        20.6240234375,
        119.97908020019531
      ],
      "min": [
        -25.007919311523438,
        -29.3759765625,
        -0.020931243896484375
      ],
      "type": "VEC3"
    },
    {
      "bufferView": 2,
      "byteOffset": 527676,
      "componentType": 5126,
      "count": 43973,
      "max": [
        1.0,
        1.0,
        1.0
      ],
      "min": [
        -1.0,
        -1.0,
        -1.0
      ],
      "type": "VEC3"
    },
    {
      "bufferView": 3,
      "componentType": 5126,
      "count": 43973,
      "max": [
        1.0,
        1.0,
        1.0,
        1.0
      ],
      "min": [
        -1.0,
        -1.0,
        -1.0,
        -1.0
      ],
      "type": "VEC4"
    },
    {
      "bufferView": 1,
      "componentType": 5126,
      "count": 43973,
      "max": [
        1.0,
        1.0
      ],
      "min": [
        0.0,
        0.0019723176956176758
      ],
      "type": "VEC2"
    },
    {
      "bufferView": 1,
      "byteOffset": 351784,
      "componentType": 5126,
      "count": 43973,
      "max": [
        1.0,
        1.0
      ],
      "min": [
        0.0,
        0.0019723176956176758
      ],
      "type": "VEC2"
    },
    {
      "bufferView": 1,
      "byteOffset": 703568,
      "componentType": 5126,
      "count": 43973,
      "max": [
        1.0,
        1.0
      ],
      "min": [
        0.0,
        0.0019723176956176758
      ],
      "type": "VEC2"
    },
    {
      "bufferView": 1,
      "byteOffset": 1055352,
      "componentType": 5126,
      "count": 43973,
      "max": [
        1.0,
        1.0
      ],
      "min": [
        0.0,
        0.0019723176956176758
      ],
      "type": "VEC2"
    },
    {
      "bufferView": 1,
      "byteOffset": 1407136,
      "componentType": 5126,
      "count": 43973,
      "max": [
        1.0,
        1.0
      ],
      "min": [
        0.0,
        0.0019723176956176758
      ],
      "type": "VEC2"
    },
    {
      "bufferView": 0,
      "componentType": 5125,
      "count": 208827,
      "type": "SCALAR"
    }
  ],
  "asset": {
    "extras": {
      "author": "chaschinkaa (https://sketchfab.com/chaschinkaa)",
      "license": "CC-BY-4.0 (http://creativecommons.org/licenses/by/4.0/)",
      "source": "https://sketchfab.com/3d-models/wooden-medieval-bookstand-a857bdcd113840da8d60423da2305031",
      "title": "Wooden medieval bookstand"
    },
    "generator": "Sketchfab-15.1.0",
    "version": "2.0"
  },
  "bufferViews": [
    {
      "buffer": 0,
      "byteLength": 835308,
      "name": "floatBufferViews",
      "target": 34963
    },
    {
      "buffer": 0,
      "byteLength": 1758920,
      "byteOffset": 835308,
      "byteStride": 8,
      "name": "floatBufferViews",
      "target": 34962
    },
    {
      "buffer": 0,
      "byteLength": 1055352,
      "byteOffset": 2594228,
      "byteStride": 12,
      "name": "floatBufferViews",
      "target": 34962
    },
    {
      "buffer": 0,
      "byteLength": 703568,
      "byteOffset": 3649580,
      "byteStride": 16,
      "name": "floatBufferViews",
      "target": 34962
    }
  ],
  "buffers": [
    {
      "byteLength": 4353148,
      "uri": "scene.bin"
    }
  ],
  "images": [
    {
      "uri": "textures/DefaultMaterial_baseColor.png"
    },
    {
      "uri": "textures/DefaultMaterial_metallicRoughness.png"
    },
    {
      "uri": "textures/DefaultMaterial_normal.png"
    }
  ],
  "materials": [
    {
      "name": "DefaultMaterial",
      "normalTexture": {
        "index": 2
      },
      "occlusionTexture": {
        "index": 1
      },
      "pbrMetallicRoughness": {
        "baseColorTexture": {
          "index": 0
        },
        "metallicRoughnessTexture": {
          "index": 1
        }
      }
    }
  ],
  "meshes": [
    {
      "name": "Object_0",
      "primitives": [
        {
          "attributes": {
            "NORMAL": 1,
            "POSITION": 0,
            "TANGENT": 2,
            "TEXCOORD_0": 3,
            "TEXCOORD_1": 4,
            "TEXCOORD_2": 5,
            "TEXCOORD_3": 6,
            "TEXCOORD_4": 7
          },
          "indices": 8,
          "material": 0,
          "mode": 4
        }
      ]
    }
  ],
  "nodes": [
    {
      "children": [
        1
      ],
      "matrix": [
        1.0,
        0.0,
        0.0,
        0.0,
        0.0,
        2.220446049250313e-16,
        -1.0,
        0.0,
        0.0,
        1.0,
        2.220446049250313e-16,
        0.0,
        0.0,
        0.0,
        0.0,
        1.0
      ],
      "name": "Sketchfab_model"
    },
    {
      "children": [
        2
      ],
      "name": "root"
    },
    {
      "children": [
        3
      ],
      "matrix": [
        1.0,
        0.0,
        0.0,
        0.0,
        0.0,
        2.220446049250313e-16,
        1.0,
        0.0,
        0.0,
        -1.0,
        2.220446049250313e-16,
        0.0,
        0.0,
        0.0,
        0.0,
        1.0
      ],
      "name": "GLTF_SceneRootNode"
    },
    {
      "children": [
        4
      ],
      "name": "RootNode_0"
    },
    {
      "children": [
        5
      ],
      "matrix": [
        1.0,
        0.0,
        -0.0,
        0.0,
        -0.0,
        -1.685873969314855e-07,
        -0.9999999999999858,
        0.0,
        0.0,
        0.9999999999999858,
        -1.685873969314855e-07,
        0.0,
        0.0,
        0.0,
        0.0,
        1.0
      ],
      "name": "bookstand_1"
    },
    {
      "children": [
        6
      ],
      "name": "bookstand_2"
    },
    {
      "mesh": 0,
      "name": "Object_6"
    }
  ],
  "samplers": [
    {
      "magFilter": 9729,
      "minFilter": 9987,
      "wrapS": 10497,
      "wrapT": 10497
    }
  ],
  "scene": 0,
  "scenes": [
    {
      "name": "Sketchfab_Scene",
      "nodes": [
        0
      ]
    }
  ],
  "textures": [
    {
      "sampler": 0,
      "source": 0
    },
    {
      "sampler": 0,
      "source": 1
    },
    {
      "sampler": 0,
      "source": 2
    }
  ]
}
